<?xml version="1.0" encoding="UTF-8" standalone="no"?>
<!DOCTYPE svg PUBLIC "-//W3C//DTD SVG 1.1//EN"
 "http://www.w3.org/Graphics/SVG/1.1/DTD/svg11.dtd">
<!-- Generated by graphviz version 2.40.1 (20161225.0304)
 -->
<!-- Title: %3 Pages: 1 -->
<svg width="230pt" height="568pt"
 viewBox="0.00 0.00 230.00 568.00" xmlns="http://www.w3.org/2000/svg" xmlns:xlink="http://www.w3.org/1999/xlink">
<g id="graph0" class="graph" transform="scale(1 1) rotate(0) translate(4 564)">
<title>%3</title>
<polygon fill="#ffffff" stroke="transparent" points="-4,4 -4,-564 226,-564 226,4 -4,4"/>
<!-- 140517379531440 -->
<g id="node1" class="node">
<title>140517379531440</title>
<polygon fill="#caff70" stroke="#000000" points="153.5,-21 68.5,-21 68.5,0 153.5,0 153.5,-21"/>
<text text-anchor="middle" x="111" y="-7.4" font-family="Times,serif" font-size="12.00" fill="#000000">MulBackward</text>
</g>
<!-- 140517379533176 -->
<g id="node2" class="node">
<title>140517379533176</title>
<polygon fill="#d3d3d3" stroke="#000000" points="160,-78 62,-78 62,-57 160,-57 160,-78"/>
<text text-anchor="middle" x="111" y="-64.4" font-family="Times,serif" font-size="12.00" fill="#000000">MeanBackward1</text>
</g>
<!-- 140517379533176&#45;&gt;140517379531440 -->
<g id="edge1" class="edge">
<title>140517379533176&#45;&gt;140517379531440</title>
<path fill="none" stroke="#000000" d="M111,-56.7787C111,-49.6134 111,-39.9517 111,-31.3097"/>
<polygon fill="#000000" stroke="#000000" points="114.5001,-31.1732 111,-21.1732 107.5001,-31.1732 114.5001,-31.1732"/>
</g>
<!-- 140517383022352 -->
<g id="node3" class="node">
<title>140517383022352</title>
<polygon fill="#d3d3d3" stroke="#000000" points="160,-135 62,-135 62,-114 160,-114 160,-135"/>
<text text-anchor="middle" x="111" y="-121.4" font-family="Times,serif" font-size="12.00" fill="#000000">ThMulBackward</text>
</g>
<!-- 140517383022352&#45;&gt;140517379533176 -->
<g id="edge2" class="edge">
<title>140517383022352&#45;&gt;140517379533176</title>
<path fill="none" stroke="#000000" d="M111,-113.7787C111,-106.6134 111,-96.9517 111,-88.3097"/>
<polygon fill="#000000" stroke="#000000" points="114.5001,-88.1732 111,-78.1732 107.5001,-88.1732 114.5001,-88.1732"/>
</g>
<!-- 140517383023584 -->
<g id="node4" class="node">
<title>140517383023584</title>
<polygon fill="#d3d3d3" stroke="#000000" points="159.5,-192 62.5,-192 62.5,-171 159.5,-171 159.5,-192"/>
<text text-anchor="middle" x="111" y="-178.4" font-family="Times,serif" font-size="12.00" fill="#000000">ThSubBackward</text>
</g>
<!-- 140517383023584&#45;&gt;140517383022352 -->
<g id="edge3" class="edge">
<title>140517383023584&#45;&gt;140517383022352</title>
<path fill="none" stroke="#000000" d="M105.5885,-170.7787C104.3317,-163.6134 103.9599,-153.9517 104.4733,-145.3097"/>
<polygon fill="#000000" stroke="#000000" points="107.9738,-145.498 105.597,-135.1732 101.0164,-144.7267 107.9738,-145.498"/>
</g>
<!-- 140517383023584&#45;&gt;140517383022352 -->
<g id="edge12" class="edge">
<title>140517383023584&#45;&gt;140517383022352</title>
<path fill="none" stroke="#000000" d="M116.4115,-170.7787C117.6683,-163.6134 118.0401,-153.9517 117.5267,-145.3097"/>
<polygon fill="#000000" stroke="#000000" points="120.9836,-144.7267 116.403,-135.1732 114.0262,-145.498 120.9836,-144.7267"/>
</g>
<!-- 140517380533720 -->
<g id="node5" class="node">
<title>140517380533720</title>
<polygon fill="#d3d3d3" stroke="#000000" points="151.5,-249 70.5,-249 70.5,-228 151.5,-228 151.5,-249"/>
<text text-anchor="middle" x="111" y="-235.4" font-family="Times,serif" font-size="12.00" fill="#000000">SinBackward</text>
</g>
<!-- 140517380533720&#45;&gt;140517383023584 -->
<g id="edge4" class="edge">
<title>140517380533720&#45;&gt;140517383023584</title>
<path fill="none" stroke="#000000" d="M111,-227.7787C111,-220.6134 111,-210.9517 111,-202.3097"/>
<polygon fill="#000000" stroke="#000000" points="114.5001,-202.1732 111,-192.1732 107.5001,-202.1732 114.5001,-202.1732"/>
</g>
<!-- 140517380531648 -->
<g id="node6" class="node">
<title>140517380531648</title>
<polygon fill="#d3d3d3" stroke="#000000" points="160.5,-306 61.5,-306 61.5,-285 160.5,-285 160.5,-306"/>
<text text-anchor="middle" x="111" y="-292.4" font-family="Times,serif" font-size="12.00" fill="#000000">ThAddBackward</text>
</g>
<!-- 140517380531648&#45;&gt;140517380533720 -->
<g id="edge5" class="edge">
<title>140517380531648&#45;&gt;140517380533720</title>
<path fill="none" stroke="#000000" d="M111,-284.7787C111,-277.6134 111,-267.9517 111,-259.3097"/>
<polygon fill="#000000" stroke="#000000" points="114.5001,-259.1732 111,-249.1732 107.5001,-259.1732 114.5001,-259.1732"/>
</g>
<!-- 140517380531928 -->
<g id="node7" class="node">
<title>140517380531928</title>
<polygon fill="#d3d3d3" stroke="#000000" points="102,-363 0,-363 0,-342 102,-342 102,-363"/>
<text text-anchor="middle" x="51" y="-349.4" font-family="Times,serif" font-size="12.00" fill="#000000">ExpandBackward</text>
</g>
<!-- 140517380531928&#45;&gt;140517380531648 -->
<g id="edge6" class="edge">
<title>140517380531928&#45;&gt;140517380531648</title>
<path fill="none" stroke="#000000" d="M62.2855,-341.7787C70.7499,-333.7376 82.5235,-322.5527 92.3757,-313.1931"/>
<polygon fill="#000000" stroke="#000000" points="94.9257,-315.5982 99.7651,-306.1732 90.1044,-310.5232 94.9257,-315.5982"/>
</g>
<!-- 140517382856776 -->
<g id="node8" class="node">
<title>140517382856776</title>
<polygon fill="#d3d3d3" stroke="#000000" points="100,-426.5 2,-426.5 2,-405.5 100,-405.5 100,-426.5"/>
<text text-anchor="middle" x="51" y="-412.9" font-family="Times,serif" font-size="12.00" fill="#000000">ThMulBackward</text>
</g>
<!-- 140517382856776&#45;&gt;140517380531928 -->
<g id="edge7" class="edge">
<title>140517382856776&#45;&gt;140517380531928</title>
<path fill="none" stroke="#000000" d="M51,-405.2281C51,-396.5091 51,-383.9699 51,-373.3068"/>
<polygon fill="#000000" stroke="#000000" points="54.5001,-373.1128 51,-363.1128 47.5001,-373.1129 54.5001,-373.1128"/>
</g>
<!-- 140517382857952 -->
<g id="node9" class="node">
<title>140517382857952</title>
<polygon fill="#d3d3d3" stroke="#000000" points="102,-490 0,-490 0,-469 102,-469 102,-490"/>
<text text-anchor="middle" x="51" y="-476.4" font-family="Times,serif" font-size="12.00" fill="#000000">ExpandBackward</text>
</g>
<!-- 140517382857952&#45;&gt;140517382856776 -->
<g id="edge8" class="edge">
<title>140517382857952&#45;&gt;140517382856776</title>
<path fill="none" stroke="#000000" d="M51,-468.7281C51,-460.0091 51,-447.4699 51,-436.8068"/>
<polygon fill="#000000" stroke="#000000" points="54.5001,-436.6128 51,-426.6128 47.5001,-436.6129 54.5001,-436.6128"/>
</g>
<!-- 140517382858344 -->
<g id="node10" class="node">
<title>140517382858344</title>
<polygon fill="#add8e6" stroke="#000000" points="78,-560 24,-560 24,-526 78,-526 78,-560"/>
<text text-anchor="middle" x="51" y="-546.4" font-family="Times,serif" font-size="12.00" fill="#000000">o</text>
<text text-anchor="middle" x="51" y="-533.4" font-family="Times,serif" font-size="12.00" fill="#000000"> (1)</text>
</g>
<!-- 140517382858344&#45;&gt;140517382857952 -->
<g id="edge9" class="edge">
<title>140517382858344&#45;&gt;140517382857952</title>
<path fill="none" stroke="#000000" d="M51,-525.9832C51,-518.1157 51,-508.6973 51,-500.4019"/>
<polygon fill="#000000" stroke="#000000" points="54.5001,-500.3686 51,-490.3687 47.5001,-500.3687 54.5001,-500.3686"/>
</g>
<!-- 140517380532096 -->
<g id="node11" class="node">
<title>140517380532096</title>
<polygon fill="#d3d3d3" stroke="#000000" points="222,-363 120,-363 120,-342 222,-342 222,-363"/>
<text text-anchor="middle" x="171" y="-349.4" font-family="Times,serif" font-size="12.00" fill="#000000">ExpandBackward</text>
</g>
<!-- 140517380532096&#45;&gt;140517380531648 -->
<g id="edge10" class="edge">
<title>140517380532096&#45;&gt;140517380531648</title>
<path fill="none" stroke="#000000" d="M159.7145,-341.7787C151.2501,-333.7376 139.4765,-322.5527 129.6243,-313.1931"/>
<polygon fill="#000000" stroke="#000000" points="131.8956,-310.5232 122.2349,-306.1732 127.0743,-315.5982 131.8956,-310.5232"/>
</g>
<!-- 140517382859576 -->
<g id="node12" class="node">
<title>140517382859576</title>
<polygon fill="#add8e6" stroke="#000000" points="198,-433 144,-433 144,-399 198,-399 198,-433"/>
<text text-anchor="middle" x="171" y="-419.4" font-family="Times,serif" font-size="12.00" fill="#000000">t</text>
<text text-anchor="middle" x="171" y="-406.4" font-family="Times,serif" font-size="12.00" fill="#000000"> (1)</text>
</g>
<!-- 140517382859576&#45;&gt;140517380532096 -->
<g id="edge11" class="edge">
<title>140517382859576&#45;&gt;140517380532096</title>
<path fill="none" stroke="#000000" d="M171,-398.9832C171,-391.1157 171,-381.6973 171,-373.4019"/>
<polygon fill="#000000" stroke="#000000" points="174.5001,-373.3686 171,-363.3687 167.5001,-373.3687 174.5001,-373.3686"/>
</g>
</g>
</svg>
