<?xml version="1.0" encoding="UTF-8" standalone="no"?>
<!DOCTYPE svg PUBLIC "-//W3C//DTD SVG 1.1//EN"
 "http://www.w3.org/Graphics/SVG/1.1/DTD/svg11.dtd">
<!-- Generated by graphviz version 2.49.0 (0)
 -->
<!-- Title: perceptron Pages: 1 -->
<svg width="588pt" height="289pt"
 viewBox="0.00 0.00 588.00 289.00" xmlns="http://www.w3.org/2000/svg" xmlns:xlink="http://www.w3.org/1999/xlink">
<g id="graph0" class="graph" transform="scale(1 1) rotate(0) translate(4 285)">
<title>perceptron</title>
<polygon fill="white" stroke="transparent" points="-4,4 -4,-285 584,-285 584,4 -4,4"/>
<!-- in_0 -->
<g id="node1" class="node">
<title>in_0</title>
<ellipse fill="none" stroke="black" cx="209" cy="-7" rx="7" ry="7"/>
</g>
<!-- h_0 -->
<g id="node9" class="node">
<title>h_0</title>
<ellipse fill="none" stroke="black" cx="259" cy="-97" rx="11" ry="11"/>
</g>
<!-- in_0&#45;&gt;h_0 -->
<g id="edge1" class="edge">
<title>in_0&#45;&gt;h_0</title>
<path fill="none" stroke="black" d="M212.13,-13.5C219.33,-26.18 237.35,-57.89 248.83,-78.1"/>
<polygon fill="black" stroke="black" points="245.88,-79.99 253.86,-86.96 251.97,-76.54 245.88,-79.99"/>
</g>
<!-- h_1 -->
<g id="node10" class="node">
<title>h_1</title>
<ellipse fill="none" stroke="black" cx="321" cy="-97" rx="11" ry="11"/>
</g>
<!-- in_0&#45;&gt;h_1 -->
<g id="edge2" class="edge">
<title>in_0&#45;&gt;h_1</title>
<path fill="none" stroke="black" d="M214.1,-12.01C229.95,-24.46 278.8,-62.84 304.62,-83.13"/>
<polygon fill="black" stroke="black" points="302.67,-86.05 312.7,-89.48 307,-80.55 302.67,-86.05"/>
</g>
<!-- h_2 -->
<g id="node11" class="node">
<title>h_2</title>
<ellipse fill="none" stroke="black" cx="383" cy="-97" rx="11" ry="11"/>
</g>
<!-- in_0&#45;&gt;h_2 -->
<g id="edge3" class="edge">
<title>in_0&#45;&gt;h_2</title>
<path fill="none" stroke="black" d="M215.19,-11.13C239.09,-23.22 325.88,-67.11 364.38,-86.58"/>
<polygon fill="black" stroke="black" points="362.97,-89.79 373.47,-91.18 366.13,-83.54 362.97,-89.79"/>
</g>
<!-- h_3 -->
<g id="node12" class="node">
<title>h_3</title>
<ellipse fill="none" stroke="black" cx="445" cy="-97" rx="11" ry="11"/>
</g>
<!-- in_0&#45;&gt;h_3 -->
<g id="edge4" class="edge">
<title>in_0&#45;&gt;h_3</title>
<path fill="none" stroke="black" d="M215.31,-10.35C245.43,-21.58 375.11,-69.94 425.18,-88.61"/>
<polygon fill="black" stroke="black" points="424.25,-92 434.84,-92.21 426.69,-85.44 424.25,-92"/>
</g>
<!-- h_4 -->
<g id="node13" class="node">
<title>h_4</title>
<ellipse fill="none" stroke="black" cx="507" cy="-97" rx="11" ry="11"/>
</g>
<!-- in_0&#45;&gt;h_4 -->
<g id="edge5" class="edge">
<title>in_0&#45;&gt;h_4</title>
<path fill="none" stroke="black" d="M215.5,-9.92C251.48,-20.54 426.73,-72.3 486.77,-90.03"/>
<polygon fill="black" stroke="black" points="486,-93.45 496.58,-92.92 487.98,-86.73 486,-93.45"/>
</g>
<!-- h_5 -->
<g id="node14" class="node">
<title>h_5</title>
<ellipse fill="none" stroke="black" cx="569" cy="-97" rx="11" ry="11"/>
</g>
<!-- in_0&#45;&gt;h_5 -->
<g id="edge6" class="edge">
<title>in_0&#45;&gt;h_5</title>
<path fill="none" stroke="black" d="M215.56,-9.6C256.63,-19.64 479.02,-74 548.35,-90.95"/>
<polygon fill="black" stroke="black" points="547.9,-94.45 558.45,-93.42 549.56,-87.65 547.9,-94.45"/>
</g>
<!-- h_6 -->
<g id="node15" class="node">
<title>h_6</title>
<ellipse fill="none" stroke="black" cx="11" cy="-97" rx="11" ry="11"/>
</g>
<!-- in_0&#45;&gt;h_6 -->
<g id="edge7" class="edge">
<title>in_0&#45;&gt;h_6</title>
<path fill="none" stroke="black" d="M202.86,-10.73C176.63,-22.39 73.42,-68.26 30.2,-87.47"/>
<polygon fill="black" stroke="black" points="28.75,-84.28 21.03,-91.54 31.59,-90.68 28.75,-84.28"/>
</g>
<!-- h_7 -->
<g id="node16" class="node">
<title>h_7</title>
<ellipse fill="none" stroke="black" cx="73" cy="-97" rx="11" ry="11"/>
</g>
<!-- in_0&#45;&gt;h_7 -->
<g id="edge8" class="edge">
<title>in_0&#45;&gt;h_7</title>
<path fill="none" stroke="black" d="M203.5,-11.56C184.59,-23.8 121.67,-64.51 90.63,-84.59"/>
<polygon fill="black" stroke="black" points="88.6,-81.74 82.1,-90.11 92.4,-87.61 88.6,-81.74"/>
</g>
<!-- h_8 -->
<g id="node17" class="node">
<title>h_8</title>
<ellipse fill="none" stroke="black" cx="135" cy="-97" rx="11" ry="11"/>
</g>
<!-- in_0&#45;&gt;h_8 -->
<g id="edge9" class="edge">
<title>in_0&#45;&gt;h_8</title>
<path fill="none" stroke="black" d="M204.81,-12.98C194.05,-25.77 165.13,-60.17 148.07,-80.45"/>
<polygon fill="black" stroke="black" points="145.34,-78.27 141.58,-88.17 150.7,-82.77 145.34,-78.27"/>
</g>
<!-- h_9 -->
<g id="node18" class="node">
<title>h_9</title>
<ellipse fill="none" stroke="black" cx="197" cy="-97" rx="11" ry="11"/>
</g>
<!-- in_0&#45;&gt;h_9 -->
<g id="edge10" class="edge">
<title>in_0&#45;&gt;h_9</title>
<path fill="none" stroke="black" d="M208.18,-14.05C206.46,-26.63 202.44,-56.11 199.72,-76.06"/>
<polygon fill="black" stroke="black" points="196.25,-75.61 198.36,-85.99 203.18,-76.56 196.25,-75.61"/>
</g>
<!-- in_1 -->
<g id="node2" class="node">
<title>in_1</title>
<ellipse fill="none" stroke="black" cx="263" cy="-7" rx="7" ry="7"/>
</g>
<!-- in_1&#45;&gt;h_0 -->
<g id="edge11" class="edge">
<title>in_1&#45;&gt;h_0</title>
<path fill="none" stroke="black" d="M262.73,-14.05C262.16,-26.57 260.83,-55.83 259.92,-75.78"/>
<polygon fill="black" stroke="black" points="256.41,-75.84 259.45,-85.99 263.41,-76.16 256.41,-75.84"/>
</g>
<!-- in_1&#45;&gt;h_1 -->
<g id="edge12" class="edge">
<title>in_1&#45;&gt;h_1</title>
<path fill="none" stroke="black" d="M266.45,-13.24C274.79,-25.89 296.31,-58.54 309.7,-78.85"/>
<polygon fill="black" stroke="black" points="306.93,-81.01 315.36,-87.44 312.78,-77.16 306.93,-81.01"/>
</g>
<!-- in_1&#45;&gt;h_2 -->
<g id="edge13" class="edge">
<title>in_1&#45;&gt;h_2</title>
<path fill="none" stroke="black" d="M268.16,-11.78C284.92,-24.08 338.41,-63.3 366.07,-83.58"/>
<polygon fill="black" stroke="black" points="364.24,-86.58 374.37,-89.67 368.38,-80.94 364.24,-86.58"/>
</g>
<!-- in_1&#45;&gt;h_3 -->
<g id="edge14" class="edge">
<title>in_1&#45;&gt;h_3</title>
<path fill="none" stroke="black" d="M269.06,-10.93C293.57,-22.78 386.03,-67.49 426.19,-86.9"/>
<polygon fill="black" stroke="black" points="424.88,-90.16 435.41,-91.36 427.93,-83.86 424.88,-90.16"/>
</g>
<!-- in_1&#45;&gt;h_4 -->
<g id="edge15" class="edge">
<title>in_1&#45;&gt;h_4</title>
<path fill="none" stroke="black" d="M269.28,-10.26C300.06,-21.36 435.64,-70.26 487.1,-88.82"/>
<polygon fill="black" stroke="black" points="486.14,-92.2 496.73,-92.3 488.51,-85.61 486.14,-92.2"/>
</g>
<!-- in_1&#45;&gt;h_5 -->
<g id="edge16" class="edge">
<title>in_1&#45;&gt;h_5</title>
<path fill="none" stroke="black" d="M269.68,-9.92C306.7,-20.57 487.38,-72.53 548.64,-90.14"/>
<polygon fill="black" stroke="black" points="548.05,-93.62 558.63,-93.02 549.98,-86.89 548.05,-93.62"/>
</g>
<!-- in_1&#45;&gt;h_6 -->
<g id="edge17" class="edge">
<title>in_1&#45;&gt;h_6</title>
<path fill="none" stroke="black" d="M256.52,-10.26C224.59,-21.41 83.48,-70.69 30.87,-89.06"/>
<polygon fill="black" stroke="black" points="29.6,-85.8 21.32,-92.4 31.91,-92.41 29.6,-85.8"/>
</g>
<!-- in_1&#45;&gt;h_7 -->
<g id="edge18" class="edge">
<title>in_1&#45;&gt;h_7</title>
<path fill="none" stroke="black" d="M256.68,-10.93C230.98,-22.83 133.74,-67.87 92.11,-87.15"/>
<polygon fill="black" stroke="black" points="90.62,-83.98 83.01,-91.36 93.56,-90.33 90.62,-83.98"/>
</g>
<!-- in_1&#45;&gt;h_8 -->
<g id="edge19" class="edge">
<title>in_1&#45;&gt;h_8</title>
<path fill="none" stroke="black" d="M257.5,-11.78C239.45,-24.19 181.51,-64.02 152.25,-84.14"/>
<polygon fill="black" stroke="black" points="150.11,-81.37 143.85,-89.92 154.07,-87.14 150.11,-81.37"/>
</g>
<!-- in_1&#45;&gt;h_9 -->
<g id="edge20" class="edge">
<title>in_1&#45;&gt;h_9</title>
<path fill="none" stroke="black" d="M259.26,-12.98C249.81,-25.59 224.61,-59.19 209.32,-79.57"/>
<polygon fill="black" stroke="black" points="206.47,-77.54 203.27,-87.64 212.07,-81.74 206.47,-77.54"/>
</g>
<!-- in_2 -->
<g id="node3" class="node">
<title>in_2</title>
<ellipse fill="none" stroke="black" cx="317" cy="-7" rx="7" ry="7"/>
</g>
<!-- in_2&#45;&gt;h_0 -->
<g id="edge21" class="edge">
<title>in_2&#45;&gt;h_0</title>
<path fill="none" stroke="black" d="M313.55,-13.24C305.21,-25.89 283.69,-58.54 270.3,-78.85"/>
<polygon fill="black" stroke="black" points="267.22,-77.16 264.64,-87.44 273.07,-81.01 267.22,-77.16"/>
</g>
<!-- in_2&#45;&gt;h_1 -->
<g id="edge22" class="edge">
<title>in_2&#45;&gt;h_1</title>
<path fill="none" stroke="black" d="M317.27,-14.05C317.84,-26.57 319.17,-55.83 320.08,-75.78"/>
<polygon fill="black" stroke="black" points="316.59,-76.16 320.55,-85.99 323.59,-75.84 316.59,-76.16"/>
</g>
<!-- in_2&#45;&gt;h_2 -->
<g id="edge23" class="edge">
<title>in_2&#45;&gt;h_2</title>
<path fill="none" stroke="black" d="M320.74,-12.98C330.19,-25.59 355.39,-59.19 370.68,-79.57"/>
<polygon fill="black" stroke="black" points="367.93,-81.74 376.73,-87.64 373.53,-77.54 367.93,-81.74"/>
</g>
<!-- in_2&#45;&gt;h_3 -->
<g id="edge24" class="edge">
<title>in_2&#45;&gt;h_3</title>
<path fill="none" stroke="black" d="M322.5,-11.78C340.55,-24.19 398.49,-64.02 427.75,-84.14"/>
<polygon fill="black" stroke="black" points="425.93,-87.14 436.15,-89.92 429.89,-81.37 425.93,-87.14"/>
</g>
<!-- in_2&#45;&gt;h_4 -->
<g id="edge25" class="edge">
<title>in_2&#45;&gt;h_4</title>
<path fill="none" stroke="black" d="M323.32,-10.93C349.02,-22.83 446.26,-67.87 487.89,-87.15"/>
<polygon fill="black" stroke="black" points="486.44,-90.33 496.99,-91.36 489.38,-83.98 486.44,-90.33"/>
</g>
<!-- in_2&#45;&gt;h_5 -->
<g id="edge26" class="edge">
<title>in_2&#45;&gt;h_5</title>
<path fill="none" stroke="black" d="M323.48,-10.26C355.41,-21.41 496.52,-70.69 549.13,-89.06"/>
<polygon fill="black" stroke="black" points="548.09,-92.41 558.68,-92.4 550.4,-85.8 548.09,-92.41"/>
</g>
<!-- in_2&#45;&gt;h_6 -->
<g id="edge27" class="edge">
<title>in_2&#45;&gt;h_6</title>
<path fill="none" stroke="black" d="M310.32,-9.92C273.3,-20.57 92.62,-72.53 31.36,-90.14"/>
<polygon fill="black" stroke="black" points="30.02,-86.89 21.37,-93.02 31.95,-93.62 30.02,-86.89"/>
</g>
<!-- in_2&#45;&gt;h_7 -->
<g id="edge28" class="edge">
<title>in_2&#45;&gt;h_7</title>
<path fill="none" stroke="black" d="M310.72,-10.26C279.94,-21.36 144.36,-70.26 92.9,-88.82"/>
<polygon fill="black" stroke="black" points="91.49,-85.61 83.27,-92.3 93.86,-92.2 91.49,-85.61"/>
</g>
<!-- in_2&#45;&gt;h_8 -->
<g id="edge29" class="edge">
<title>in_2&#45;&gt;h_8</title>
<path fill="none" stroke="black" d="M310.94,-10.93C286.43,-22.78 193.97,-67.49 153.81,-86.9"/>
<polygon fill="black" stroke="black" points="152.07,-83.86 144.59,-91.36 155.12,-90.16 152.07,-83.86"/>
</g>
<!-- in_2&#45;&gt;h_9 -->
<g id="edge30" class="edge">
<title>in_2&#45;&gt;h_9</title>
<path fill="none" stroke="black" d="M311.84,-11.78C295.08,-24.08 241.59,-63.3 213.93,-83.58"/>
<polygon fill="black" stroke="black" points="211.62,-80.94 205.63,-89.67 215.76,-86.58 211.62,-80.94"/>
</g>
<!-- in_3 -->
<g id="node4" class="node">
<title>in_3</title>
<ellipse fill="none" stroke="black" cx="371" cy="-7" rx="7" ry="7"/>
</g>
<!-- in_3&#45;&gt;h_0 -->
<g id="edge31" class="edge">
<title>in_3&#45;&gt;h_0</title>
<path fill="none" stroke="black" d="M365.9,-12.01C350.05,-24.46 301.2,-62.84 275.38,-83.13"/>
<polygon fill="black" stroke="black" points="273,-80.55 267.3,-89.48 277.33,-86.05 273,-80.55"/>
</g>
<!-- in_3&#45;&gt;h_1 -->
<g id="edge32" class="edge">
<title>in_3&#45;&gt;h_1</title>
<path fill="none" stroke="black" d="M367.87,-13.5C360.67,-26.18 342.65,-57.89 331.17,-78.1"/>
<polygon fill="black" stroke="black" points="328.03,-76.54 326.14,-86.96 334.12,-79.99 328.03,-76.54"/>
</g>
<!-- in_3&#45;&gt;h_2 -->
<g id="edge33" class="edge">
<title>in_3&#45;&gt;h_2</title>
<path fill="none" stroke="black" d="M371.82,-14.05C373.54,-26.63 377.56,-56.11 380.28,-76.06"/>
<polygon fill="black" stroke="black" points="376.82,-76.56 381.64,-85.99 383.75,-75.61 376.82,-76.56"/>
</g>
<!-- in_3&#45;&gt;h_3 -->
<g id="edge34" class="edge">
<title>in_3&#45;&gt;h_3</title>
<path fill="none" stroke="black" d="M375.19,-12.98C385.95,-25.77 414.87,-60.17 431.93,-80.45"/>
<polygon fill="black" stroke="black" points="429.3,-82.77 438.42,-88.17 434.66,-78.27 429.3,-82.77"/>
</g>
<!-- in_3&#45;&gt;h_4 -->
<g id="edge35" class="edge">
<title>in_3&#45;&gt;h_4</title>
<path fill="none" stroke="black" d="M376.5,-11.56C395.41,-23.8 458.33,-64.51 489.37,-84.59"/>
<polygon fill="black" stroke="black" points="487.6,-87.61 497.9,-90.11 491.4,-81.74 487.6,-87.61"/>
</g>
<!-- in_3&#45;&gt;h_5 -->
<g id="edge36" class="edge">
<title>in_3&#45;&gt;h_5</title>
<path fill="none" stroke="black" d="M377.14,-10.73C403.37,-22.39 506.58,-68.26 549.8,-87.47"/>
<polygon fill="black" stroke="black" points="548.41,-90.68 558.97,-91.54 551.25,-84.28 548.41,-90.68"/>
</g>
<!-- in_3&#45;&gt;h_6 -->
<g id="edge37" class="edge">
<title>in_3&#45;&gt;h_6</title>
<path fill="none" stroke="black" d="M364.44,-9.6C323.37,-19.64 100.98,-74 31.65,-90.95"/>
<polygon fill="black" stroke="black" points="30.44,-87.65 21.55,-93.42 32.1,-94.45 30.44,-87.65"/>
</g>
<!-- in_3&#45;&gt;h_7 -->
<g id="edge38" class="edge">
<title>in_3&#45;&gt;h_7</title>
<path fill="none" stroke="black" d="M364.5,-9.92C328.52,-20.54 153.27,-72.3 93.23,-90.03"/>
<polygon fill="black" stroke="black" points="92.02,-86.73 83.42,-92.92 94,-93.45 92.02,-86.73"/>
</g>
<!-- in_3&#45;&gt;h_8 -->
<g id="edge39" class="edge">
<title>in_3&#45;&gt;h_8</title>
<path fill="none" stroke="black" d="M364.69,-10.35C334.57,-21.58 204.89,-69.94 154.82,-88.61"/>
<polygon fill="black" stroke="black" points="153.31,-85.44 145.16,-92.21 155.75,-92 153.31,-85.44"/>
</g>
<!-- in_3&#45;&gt;h_9 -->
<g id="edge40" class="edge">
<title>in_3&#45;&gt;h_9</title>
<path fill="none" stroke="black" d="M364.81,-11.13C340.91,-23.22 254.12,-67.11 215.62,-86.58"/>
<polygon fill="black" stroke="black" points="213.87,-83.54 206.53,-91.18 217.03,-89.79 213.87,-83.54"/>
</g>
<!-- in_4 -->
<g id="node5" class="node">
<title>in_4</title>
<ellipse fill="none" stroke="black" cx="425" cy="-7" rx="7" ry="7"/>
</g>
<!-- in_4&#45;&gt;h_0 -->
<g id="edge41" class="edge">
<title>in_4&#45;&gt;h_0</title>
<path fill="none" stroke="black" d="M419.09,-11.13C396.5,-23.11 314.96,-66.33 277.75,-86.06"/>
<polygon fill="black" stroke="black" points="275.71,-83.18 268.52,-90.95 278.99,-89.36 275.71,-83.18"/>
</g>
<!-- in_4&#45;&gt;h_1 -->
<g id="edge42" class="edge">
<title>in_4&#45;&gt;h_1</title>
<path fill="none" stroke="black" d="M419.98,-12.24C405.1,-24.84 360.71,-62.4 336.75,-82.67"/>
<polygon fill="black" stroke="black" points="334.31,-80.15 328.94,-89.28 338.83,-85.49 334.31,-80.15"/>
</g>
<!-- in_4&#45;&gt;h_2 -->
<g id="edge43" class="edge">
<title>in_4&#45;&gt;h_2</title>
<path fill="none" stroke="black" d="M422.37,-13.5C416.38,-26.06 401.48,-57.28 391.82,-77.51"/>
<polygon fill="black" stroke="black" points="388.6,-76.15 387.45,-86.68 394.91,-79.16 388.6,-76.15"/>
</g>
<!-- in_4&#45;&gt;h_3 -->
<g id="edge44" class="edge">
<title>in_4&#45;&gt;h_3</title>
<path fill="none" stroke="black" d="M426.37,-14.05C429.23,-26.63 435.93,-56.11 440.47,-76.06"/>
<polygon fill="black" stroke="black" points="437.1,-77.02 442.73,-85.99 443.92,-75.46 437.1,-77.02"/>
</g>
<!-- in_4&#45;&gt;h_4 -->
<g id="edge45" class="edge">
<title>in_4&#45;&gt;h_4</title>
<path fill="none" stroke="black" d="M429.41,-12.73C441.22,-25.41 473.97,-60.55 492.93,-80.9"/>
<polygon fill="black" stroke="black" points="490.52,-83.44 499.89,-88.37 495.64,-78.67 490.52,-83.44"/>
</g>
<!-- in_4&#45;&gt;h_5 -->
<g id="edge46" class="edge">
<title>in_4&#45;&gt;h_5</title>
<path fill="none" stroke="black" d="M430.82,-11.56C450.95,-23.86 518.1,-64.89 550.8,-84.88"/>
<polygon fill="black" stroke="black" points="549.39,-88.12 559.75,-90.35 553.04,-82.15 549.39,-88.12"/>
</g>
<!-- in_4&#45;&gt;h_6 -->
<g id="edge47" class="edge">
<title>in_4&#45;&gt;h_6</title>
<path fill="none" stroke="black" d="M418.16,-9.45C372.17,-19.23 107.5,-75.49 31.44,-91.66"/>
<polygon fill="black" stroke="black" points="30.69,-88.24 21.63,-93.74 32.14,-95.08 30.69,-88.24"/>
</g>
<!-- in_4&#45;&gt;h_7 -->
<g id="edge48" class="edge">
<title>in_4&#45;&gt;h_7</title>
<path fill="none" stroke="black" d="M418.28,-9.68C377.41,-19.9 161.59,-73.85 93.56,-90.86"/>
<polygon fill="black" stroke="black" points="92.48,-87.52 83.63,-93.34 94.18,-94.31 92.48,-87.52"/>
</g>
<!-- in_4&#45;&gt;h_8 -->
<g id="edge49" class="edge">
<title>in_4&#45;&gt;h_8</title>
<path fill="none" stroke="black" d="M418.4,-10C382.84,-20.79 213.57,-72.16 155,-89.93"/>
<polygon fill="black" stroke="black" points="153.96,-86.59 145.41,-92.84 155.99,-93.29 153.96,-86.59"/>
</g>
<!-- in_4&#45;&gt;h_9 -->
<g id="edge50" class="edge">
<title>in_4&#45;&gt;h_9</title>
<path fill="none" stroke="black" d="M418.42,-10.54C388.56,-22.07 265.07,-69.73 216.63,-88.42"/>
<polygon fill="black" stroke="black" points="215.07,-85.27 207,-92.14 217.59,-91.81 215.07,-85.27"/>
</g>
<!-- in_5 -->
<g id="node6" class="node">
<title>in_5</title>
<ellipse fill="none" stroke="black" cx="479" cy="-7" rx="7" ry="7"/>
</g>
<!-- in_5&#45;&gt;h_0 -->
<g id="edge51" class="edge">
<title>in_5&#45;&gt;h_0</title>
<path fill="none" stroke="black" d="M472.65,-10.54C443.9,-22.04 325.23,-69.51 278.26,-88.3"/>
<polygon fill="black" stroke="black" points="276.89,-85.07 268.91,-92.04 279.49,-91.57 276.89,-85.07"/>
</g>
<!-- in_5&#45;&gt;h_1 -->
<g id="edge52" class="edge">
<title>in_5&#45;&gt;h_1</title>
<path fill="none" stroke="black" d="M473,-11.34C451.05,-23.57 374.57,-66.16 339.2,-85.86"/>
<polygon fill="black" stroke="black" points="337.43,-82.85 330.39,-90.77 340.83,-88.96 337.43,-82.85"/>
</g>
<!-- in_5&#45;&gt;h_2 -->
<g id="edge53" class="edge">
<title>in_5&#45;&gt;h_2</title>
<path fill="none" stroke="black" d="M474.11,-12.48C460.28,-25.16 420.51,-61.62 398.36,-81.92"/>
<polygon fill="black" stroke="black" points="395.83,-79.49 390.82,-88.83 400.56,-84.65 395.83,-79.49"/>
</g>
<!-- in_5&#45;&gt;h_3 -->
<g id="edge54" class="edge">
<title>in_5&#45;&gt;h_3</title>
<path fill="none" stroke="black" d="M476.77,-13.77C471.89,-26.41 460.08,-56.98 452.31,-77.07"/>
<polygon fill="black" stroke="black" points="449.02,-75.89 448.68,-86.48 455.55,-78.41 449.02,-75.89"/>
</g>
<!-- in_5&#45;&gt;h_4 -->
<g id="edge55" class="edge">
<title>in_5&#45;&gt;h_4</title>
<path fill="none" stroke="black" d="M480.84,-13.77C484.82,-26.29 494.4,-56.39 500.79,-76.49"/>
<polygon fill="black" stroke="black" points="497.51,-77.73 503.88,-86.19 504.18,-75.6 497.51,-77.73"/>
</g>
<!-- in_5&#45;&gt;h_5 -->
<g id="edge56" class="edge">
<title>in_5&#45;&gt;h_5</title>
<path fill="none" stroke="black" d="M483.84,-12.73C496.93,-25.53 533.42,-61.21 554.14,-81.47"/>
<polygon fill="black" stroke="black" points="551.87,-84.15 561.47,-88.63 556.76,-79.14 551.87,-84.15"/>
</g>
<!-- in_5&#45;&gt;h_6 -->
<g id="edge57" class="edge">
<title>in_5&#45;&gt;h_6</title>
<path fill="none" stroke="black" d="M472.02,-9.31C421.8,-18.76 115.12,-76.42 31.85,-92.08"/>
<polygon fill="black" stroke="black" points="31.01,-88.68 21.83,-93.96 32.3,-95.56 31.01,-88.68"/>
</g>
<!-- in_5&#45;&gt;h_7 -->
<g id="edge58" class="edge">
<title>in_5&#45;&gt;h_7</title>
<path fill="none" stroke="black" d="M472.29,-9.45C427.38,-19.19 169.83,-75.01 94,-91.45"/>
<polygon fill="black" stroke="black" points="92.84,-88.12 83.81,-93.66 94.33,-94.96 92.84,-88.12"/>
</g>
<!-- in_5&#45;&gt;h_8 -->
<g id="edge59" class="edge">
<title>in_5&#45;&gt;h_8</title>
<path fill="none" stroke="black" d="M472.44,-9.68C432.49,-19.9 221.58,-73.85 155.09,-90.86"/>
<polygon fill="black" stroke="black" points="154.21,-87.47 145.39,-93.34 155.94,-94.26 154.21,-87.47"/>
</g>
<!-- in_5&#45;&gt;h_9 -->
<g id="edge60" class="edge">
<title>in_5&#45;&gt;h_9</title>
<path fill="none" stroke="black" d="M472.58,-10C438.15,-20.75 274.81,-71.72 217.19,-89.7"/>
<polygon fill="black" stroke="black" points="215.93,-86.43 207.42,-92.75 218.01,-93.11 215.93,-86.43"/>
</g>
<!-- in_6 -->
<g id="node7" class="node">
<title>in_6</title>
<ellipse fill="none" stroke="black" cx="101" cy="-7" rx="7" ry="7"/>
</g>
<!-- in_6&#45;&gt;h_0 -->
<g id="edge61" class="edge">
<title>in_6&#45;&gt;h_0</title>
<path fill="none" stroke="black" d="M107,-11.34C128.95,-23.57 205.43,-66.16 240.8,-85.86"/>
<polygon fill="black" stroke="black" points="239.17,-88.96 249.61,-90.77 242.57,-82.85 239.17,-88.96"/>
</g>
<!-- in_6&#45;&gt;h_1 -->
<g id="edge62" class="edge">
<title>in_6&#45;&gt;h_1</title>
<path fill="none" stroke="black" d="M107.35,-10.54C136.1,-22.04 254.77,-69.51 301.74,-88.3"/>
<polygon fill="black" stroke="black" points="300.51,-91.57 311.09,-92.04 303.11,-85.07 300.51,-91.57"/>
</g>
<!-- in_6&#45;&gt;h_2 -->
<g id="edge63" class="edge">
<title>in_6&#45;&gt;h_2</title>
<path fill="none" stroke="black" d="M107.42,-10C141.85,-20.75 305.19,-71.72 362.81,-89.7"/>
<polygon fill="black" stroke="black" points="361.99,-93.11 372.58,-92.75 364.07,-86.43 361.99,-93.11"/>
</g>
<!-- in_6&#45;&gt;h_3 -->
<g id="edge64" class="edge">
<title>in_6&#45;&gt;h_3</title>
<path fill="none" stroke="black" d="M107.56,-9.68C147.51,-19.9 358.42,-73.85 424.91,-90.86"/>
<polygon fill="black" stroke="black" points="424.06,-94.26 434.61,-93.34 425.79,-87.47 424.06,-94.26"/>
</g>
<!-- in_6&#45;&gt;h_4 -->
<g id="edge65" class="edge">
<title>in_6&#45;&gt;h_4</title>
<path fill="none" stroke="black" d="M107.71,-9.45C152.62,-19.19 410.17,-75.01 486,-91.45"/>
<polygon fill="black" stroke="black" points="485.67,-94.96 496.19,-93.66 487.16,-88.12 485.67,-94.96"/>
</g>
<!-- in_6&#45;&gt;h_5 -->
<g id="edge66" class="edge">
<title>in_6&#45;&gt;h_5</title>
<path fill="none" stroke="black" d="M107.98,-9.31C158.2,-18.76 464.88,-76.42 548.15,-92.08"/>
<polygon fill="black" stroke="black" points="547.7,-95.56 558.17,-93.96 548.99,-88.68 547.7,-95.56"/>
</g>
<!-- in_6&#45;&gt;h_6 -->
<g id="edge67" class="edge">
<title>in_6&#45;&gt;h_6</title>
<path fill="none" stroke="black" d="M96.16,-12.73C83.07,-25.53 46.58,-61.21 25.86,-81.47"/>
<polygon fill="black" stroke="black" points="23.24,-79.14 18.53,-88.63 28.13,-84.15 23.24,-79.14"/>
</g>
<!-- in_6&#45;&gt;h_7 -->
<g id="edge68" class="edge">
<title>in_6&#45;&gt;h_7</title>
<path fill="none" stroke="black" d="M99.16,-13.77C95.18,-26.29 85.6,-56.39 79.21,-76.49"/>
<polygon fill="black" stroke="black" points="75.82,-75.6 76.12,-86.19 82.49,-77.73 75.82,-75.6"/>
</g>
<!-- in_6&#45;&gt;h_8 -->
<g id="edge69" class="edge">
<title>in_6&#45;&gt;h_8</title>
<path fill="none" stroke="black" d="M103.23,-13.77C108.11,-26.41 119.92,-56.98 127.69,-77.07"/>
<polygon fill="black" stroke="black" points="124.45,-78.41 131.32,-86.48 130.98,-75.89 124.45,-78.41"/>
</g>
<!-- in_6&#45;&gt;h_9 -->
<g id="edge70" class="edge">
<title>in_6&#45;&gt;h_9</title>
<path fill="none" stroke="black" d="M105.89,-12.48C119.72,-25.16 159.49,-61.62 181.64,-81.92"/>
<polygon fill="black" stroke="black" points="179.44,-84.65 189.18,-88.83 184.17,-79.49 179.44,-84.65"/>
</g>
<!-- in_7 -->
<g id="node8" class="node">
<title>in_7</title>
<ellipse fill="none" stroke="black" cx="155" cy="-7" rx="7" ry="7"/>
</g>
<!-- in_7&#45;&gt;h_0 -->
<g id="edge71" class="edge">
<title>in_7&#45;&gt;h_0</title>
<path fill="none" stroke="black" d="M160.02,-12.24C174.9,-24.84 219.29,-62.4 243.25,-82.67"/>
<polygon fill="black" stroke="black" points="241.17,-85.49 251.06,-89.28 245.69,-80.15 241.17,-85.49"/>
</g>
<!-- in_7&#45;&gt;h_1 -->
<g id="edge72" class="edge">
<title>in_7&#45;&gt;h_1</title>
<path fill="none" stroke="black" d="M160.91,-11.13C183.5,-23.11 265.04,-66.33 302.25,-86.06"/>
<polygon fill="black" stroke="black" points="301.01,-89.36 311.48,-90.95 304.29,-83.18 301.01,-89.36"/>
</g>
<!-- in_7&#45;&gt;h_2 -->
<g id="edge73" class="edge">
<title>in_7&#45;&gt;h_2</title>
<path fill="none" stroke="black" d="M161.58,-10.54C191.44,-22.07 314.93,-69.73 363.37,-88.42"/>
<polygon fill="black" stroke="black" points="362.41,-91.81 373,-92.14 364.93,-85.27 362.41,-91.81"/>
</g>
<!-- in_7&#45;&gt;h_3 -->
<g id="edge74" class="edge">
<title>in_7&#45;&gt;h_3</title>
<path fill="none" stroke="black" d="M161.6,-10C197.16,-20.79 366.43,-72.16 425,-89.93"/>
<polygon fill="black" stroke="black" points="424.01,-93.29 434.59,-92.84 426.04,-86.59 424.01,-93.29"/>
</g>
<!-- in_7&#45;&gt;h_4 -->
<g id="edge75" class="edge">
<title>in_7&#45;&gt;h_4</title>
<path fill="none" stroke="black" d="M161.72,-9.68C202.59,-19.9 418.41,-73.85 486.44,-90.86"/>
<polygon fill="black" stroke="black" points="485.82,-94.31 496.37,-93.34 487.52,-87.52 485.82,-94.31"/>
</g>
<!-- in_7&#45;&gt;h_5 -->
<g id="edge76" class="edge">
<title>in_7&#45;&gt;h_5</title>
<path fill="none" stroke="black" d="M161.84,-9.45C207.83,-19.23 472.5,-75.49 548.56,-91.66"/>
<polygon fill="black" stroke="black" points="547.86,-95.08 558.37,-93.74 549.31,-88.24 547.86,-95.08"/>
</g>
<!-- in_7&#45;&gt;h_6 -->
<g id="edge77" class="edge">
<title>in_7&#45;&gt;h_6</title>
<path fill="none" stroke="black" d="M149.18,-11.56C129.05,-23.86 61.9,-64.89 29.2,-84.88"/>
<polygon fill="black" stroke="black" points="26.96,-82.15 20.25,-90.35 30.61,-88.12 26.96,-82.15"/>
</g>
<!-- in_7&#45;&gt;h_7 -->
<g id="edge78" class="edge">
<title>in_7&#45;&gt;h_7</title>
<path fill="none" stroke="black" d="M150.59,-12.73C138.78,-25.41 106.03,-60.55 87.07,-80.9"/>
<polygon fill="black" stroke="black" points="84.36,-78.67 80.11,-88.37 89.48,-83.44 84.36,-78.67"/>
</g>
<!-- in_7&#45;&gt;h_8 -->
<g id="edge79" class="edge">
<title>in_7&#45;&gt;h_8</title>
<path fill="none" stroke="black" d="M153.63,-14.05C150.77,-26.63 144.07,-56.11 139.53,-76.06"/>
<polygon fill="black" stroke="black" points="136.08,-75.46 137.27,-85.99 142.9,-77.02 136.08,-75.46"/>
</g>
<!-- in_7&#45;&gt;h_9 -->
<g id="edge80" class="edge">
<title>in_7&#45;&gt;h_9</title>
<path fill="none" stroke="black" d="M157.63,-13.5C163.62,-26.06 178.52,-57.28 188.18,-77.51"/>
<polygon fill="black" stroke="black" points="185.09,-79.16 192.55,-86.68 191.4,-76.15 185.09,-79.16"/>
</g>
<!-- out -->
<g id="node20" class="node">
<title>out</title>
<ellipse fill="none" stroke="black" cx="290" cy="-191" rx="11" ry="11"/>
</g>
<!-- h_0&#45;&gt;out -->
<g id="edge81" class="edge">
<title>h_0&#45;&gt;out</title>
<path fill="none" stroke="black" d="M262.32,-107.85C267.35,-122.79 277.02,-151.47 283.49,-170.68"/>
<polygon fill="black" stroke="black" points="280.2,-171.87 286.71,-180.23 286.83,-169.63 280.2,-171.87"/>
</g>
<!-- h_1&#45;&gt;out -->
<g id="edge82" class="edge">
<title>h_1&#45;&gt;out</title>
<path fill="none" stroke="black" d="M317.68,-107.85C312.65,-122.79 302.98,-151.47 296.51,-170.68"/>
<polygon fill="black" stroke="black" points="293.17,-169.63 293.29,-180.23 299.8,-171.87 293.17,-169.63"/>
</g>
<!-- h_2&#45;&gt;out -->
<g id="edge83" class="edge">
<title>h_2&#45;&gt;out</title>
<path fill="none" stroke="black" d="M375.39,-105.53C359.99,-120.77 324.88,-155.5 304.81,-175.35"/>
<polygon fill="black" stroke="black" points="302.1,-173.1 297.46,-182.62 307.03,-178.08 302.1,-173.1"/>
</g>
<!-- h_3&#45;&gt;out -->
<g id="edge84" class="edge">
<title>h_3&#45;&gt;out</title>
<path fill="none" stroke="black" d="M435.77,-103.48C410.74,-118.34 341.23,-159.59 308.06,-179.28"/>
<polygon fill="black" stroke="black" points="306.19,-176.32 299.38,-184.43 309.77,-182.34 306.19,-176.32"/>
</g>
<!-- h_4&#45;&gt;out -->
<g id="edge85" class="edge">
<title>h_4&#45;&gt;out</title>
<path fill="none" stroke="black" d="M497.11,-102.19C463.64,-116.38 354.22,-162.77 309.41,-181.77"/>
<polygon fill="black" stroke="black" points="307.79,-178.66 299.95,-185.78 310.52,-185.1 307.79,-178.66"/>
</g>
<!-- h_5&#45;&gt;out -->
<g id="edge86" class="edge">
<title>h_5&#45;&gt;out</title>
<path fill="none" stroke="black" d="M558.74,-101.38C517.73,-114.91 365.13,-165.23 310.01,-183.4"/>
<polygon fill="black" stroke="black" points="308.75,-180.13 300.35,-186.59 310.95,-186.78 308.75,-180.13"/>
</g>
<!-- h_6&#45;&gt;out -->
<g id="edge87" class="edge">
<title>h_6&#45;&gt;out</title>
<path fill="none" stroke="black" d="M21.26,-101.38C62.27,-114.91 214.87,-165.23 269.99,-183.4"/>
<polygon fill="black" stroke="black" points="269.05,-186.78 279.65,-186.59 271.25,-180.13 269.05,-186.78"/>
</g>
<!-- h_7&#45;&gt;out -->
<g id="edge88" class="edge">
<title>h_7&#45;&gt;out</title>
<path fill="none" stroke="black" d="M82.89,-102.19C116.36,-116.38 225.78,-162.77 270.59,-181.77"/>
<polygon fill="black" stroke="black" points="269.48,-185.1 280.05,-185.78 272.21,-178.66 269.48,-185.1"/>
</g>
<!-- h_8&#45;&gt;out -->
<g id="edge89" class="edge">
<title>h_8&#45;&gt;out</title>
<path fill="none" stroke="black" d="M144.23,-103.48C169.26,-118.34 238.77,-159.59 271.94,-179.28"/>
<polygon fill="black" stroke="black" points="270.23,-182.34 280.62,-184.43 273.81,-176.32 270.23,-182.34"/>
</g>
<!-- h_9&#45;&gt;out -->
<g id="edge90" class="edge">
<title>h_9&#45;&gt;out</title>
<path fill="none" stroke="black" d="M204.61,-105.53C220.01,-120.77 255.12,-155.5 275.19,-175.35"/>
<polygon fill="black" stroke="black" points="272.97,-178.08 282.54,-182.62 277.9,-173.1 272.97,-178.08"/>
</g>
<!-- empty -->
<g id="node19" class="node">
<title>empty</title>
<ellipse fill="none" stroke="black" cx="290" cy="-277.5" rx="3.5" ry="3.5"/>
</g>
<!-- out&#45;&gt;empty -->
<g id="edge91" class="edge">
<title>out&#45;&gt;empty</title>
<path fill="none" stroke="black" d="M290,-202.03C290,-217.34 290,-246.57 290,-263.5"/>
<polygon fill="black" stroke="black" points="286.5,-263.94 290,-273.94 293.5,-263.94 286.5,-263.94"/>
</g>
</g>
</svg>
