<?xml version="1.0" encoding="UTF-8" standalone="no"?>
<!DOCTYPE svg PUBLIC "-//W3C//DTD SVG 1.1//EN"
 "http://www.w3.org/Graphics/SVG/1.1/DTD/svg11.dtd">
<!-- Generated by graphviz version 2.49.0 (0)
 -->
<!-- Title: perceptron Pages: 1 -->
<svg width="400pt" height="195pt"
 viewBox="0.00 0.00 400.00 195.00" xmlns="http://www.w3.org/2000/svg" xmlns:xlink="http://www.w3.org/1999/xlink">
<g id="graph0" class="graph" transform="scale(1 1) rotate(0) translate(4 191)">
<title>perceptron</title>
<polygon fill="white" stroke="transparent" points="-4,4 -4,-191 396,-191 396,4 -4,4"/>
<!-- 0 -->
<g id="node1" class="node">
<title>0</title>
<ellipse fill="none" stroke="black" cx="7" cy="-7" rx="7" ry="7"/>
</g>
<!-- out -->
<g id="node9" class="node">
<title>out</title>
<ellipse fill="none" stroke="black" cx="196" cy="-97" rx="11" ry="11"/>
</g>
<!-- 0&#45;&gt;out -->
<g id="edge1" class="edge">
<title>0&#45;&gt;out</title>
<path fill="none" stroke="black" d="M13.29,-10.93C38.8,-22.8 135.17,-67.68 176.73,-87.03"/>
<polygon fill="black" stroke="black" points="175.5,-90.31 186.04,-91.36 178.45,-83.97 175.5,-90.31"/>
</g>
<!-- 1 -->
<g id="node2" class="node">
<title>1</title>
<ellipse fill="none" stroke="black" cx="61" cy="-7" rx="7" ry="7"/>
</g>
<!-- 1&#45;&gt;out -->
<g id="edge2" class="edge">
<title>1&#45;&gt;out</title>
<path fill="none" stroke="black" d="M66.46,-11.56C85.24,-23.8 147.69,-64.51 178.5,-84.59"/>
<polygon fill="black" stroke="black" points="176.67,-87.58 186.96,-90.11 180.5,-81.72 176.67,-87.58"/>
</g>
<!-- 2 -->
<g id="node3" class="node">
<title>2</title>
<ellipse fill="none" stroke="black" cx="115" cy="-7" rx="7" ry="7"/>
</g>
<!-- 2&#45;&gt;out -->
<g id="edge3" class="edge">
<title>2&#45;&gt;out</title>
<path fill="none" stroke="black" d="M119.35,-12.73C131.02,-25.41 163.37,-60.55 182.1,-80.9"/>
<polygon fill="black" stroke="black" points="179.63,-83.39 188.98,-88.37 184.78,-78.65 179.63,-83.39"/>
</g>
<!-- 3 -->
<g id="node4" class="node">
<title>3</title>
<ellipse fill="none" stroke="black" cx="169" cy="-7" rx="7" ry="7"/>
</g>
<!-- 3&#45;&gt;out -->
<g id="edge4" class="edge">
<title>3&#45;&gt;out</title>
<path fill="none" stroke="black" d="M170.77,-13.77C174.61,-26.29 183.85,-56.39 190.01,-76.49"/>
<polygon fill="black" stroke="black" points="186.71,-77.66 192.99,-86.19 193.4,-75.61 186.71,-77.66"/>
</g>
<!-- 4 -->
<g id="node5" class="node">
<title>4</title>
<ellipse fill="none" stroke="black" cx="223" cy="-7" rx="7" ry="7"/>
</g>
<!-- 4&#45;&gt;out -->
<g id="edge5" class="edge">
<title>4&#45;&gt;out</title>
<path fill="none" stroke="black" d="M221.23,-13.77C217.39,-26.29 208.15,-56.39 201.99,-76.49"/>
<polygon fill="black" stroke="black" points="198.6,-75.61 199.01,-86.19 205.29,-77.66 198.6,-75.61"/>
</g>
<!-- 5 -->
<g id="node6" class="node">
<title>5</title>
<ellipse fill="none" stroke="black" cx="277" cy="-7" rx="7" ry="7"/>
</g>
<!-- 5&#45;&gt;out -->
<g id="edge6" class="edge">
<title>5&#45;&gt;out</title>
<path fill="none" stroke="black" d="M272.65,-12.73C260.98,-25.41 228.63,-60.55 209.9,-80.9"/>
<polygon fill="black" stroke="black" points="207.22,-78.65 203.02,-88.37 212.37,-83.39 207.22,-78.65"/>
</g>
<!-- 6 -->
<g id="node7" class="node">
<title>6</title>
<ellipse fill="none" stroke="black" cx="331" cy="-7" rx="7" ry="7"/>
</g>
<!-- 6&#45;&gt;out -->
<g id="edge7" class="edge">
<title>6&#45;&gt;out</title>
<path fill="none" stroke="black" d="M325.54,-11.56C306.76,-23.8 244.31,-64.51 213.5,-84.59"/>
<polygon fill="black" stroke="black" points="211.5,-81.72 205.04,-90.11 215.33,-87.58 211.5,-81.72"/>
</g>
<!-- 7 -->
<g id="node8" class="node">
<title>7</title>
<ellipse fill="none" stroke="black" cx="385" cy="-7" rx="7" ry="7"/>
</g>
<!-- 7&#45;&gt;out -->
<g id="edge8" class="edge">
<title>7&#45;&gt;out</title>
<path fill="none" stroke="black" d="M378.71,-10.93C353.2,-22.8 256.83,-67.68 215.27,-87.03"/>
<polygon fill="black" stroke="black" points="213.55,-83.97 205.96,-91.36 216.5,-90.31 213.55,-83.97"/>
</g>
<!-- empty -->
<g id="node10" class="node">
<title>empty</title>
<ellipse fill="none" stroke="black" cx="196" cy="-183.5" rx="3.5" ry="3.5"/>
</g>
<!-- out&#45;&gt;empty -->
<g id="edge9" class="edge">
<title>out&#45;&gt;empty</title>
<path fill="none" stroke="black" d="M196,-108.03C196,-123.34 196,-152.57 196,-169.5"/>
<polygon fill="black" stroke="black" points="192.5,-169.94 196,-179.94 199.5,-169.94 192.5,-169.94"/>
</g>
</g>
</svg>
