<svg id="Warstwa_1" data-name="Warstwa 1" xmlns="http://www.w3.org/2000/svg" viewBox="0 0 168 129"><defs><style>.cls-1{fill:#fff;}</style></defs><rect class="cls-1" x="0.5" y="97.5" width="31" height="31"/><path d="M327,315v30H297V315h30m1-1H296v32h32V314Z" transform="translate(-296 -217)"/><rect class="cls-1" x="34.5" y="97.5" width="31" height="31"/><path d="M361,315v30H331V315h30m1-1H330v32h32V314Z" transform="translate(-296 -217)"/><rect class="cls-1" x="68.5" y="97.5" width="31" height="31"/><path d="M395,315v30H365V315h30m1-1H364v32h32V314Z" transform="translate(-296 -217)"/><rect class="cls-1" x="102.5" y="97.5" width="31" height="31"/><path d="M429,315v30H399V315h30m1-1H398v32h32V314Z" transform="translate(-296 -217)"/><rect class="cls-1" x="136.5" y="97.5" width="31" height="31"/><path d="M463,315v30H433V315h30m1-1H432v32h32V314Z" transform="translate(-296 -217)"/><rect class="cls-1" x="34.5" y="0.5" width="31" height="31"/><path d="M361,218v30H331V218h30m1-1H330v32h32V217Z" transform="translate(-296 -217)"/><rect class="cls-1" x="68.5" y="0.5" width="31" height="31"/><path d="M395,218v30H365V218h30m1-1H364v32h32V217Z" transform="translate(-296 -217)"/><rect class="cls-1" x="102.5" y="0.5" width="31" height="31"/><path d="M429,218v30H399V218h30m1-1H398v32h32V217Z" transform="translate(-296 -217)"/></svg>